<svg xmlns="http://www.w3.org/2000/svg"><symbol id="sprite-date_range-24px" viewBox="0 0 24 24"><title>date_range-24px</title><path d="M9 11H7v2h2v-2zm4 0h-2v2h2v-2zm4 0h-2v2h2v-2zm2-7h-1V2h-2v2H8V2H6v2H5c-1.11 0-1.99.9-1.99 2L3 20a2 2 0 002 2h14c1.1 0 2-.9 2-2V6c0-1.1-.9-2-2-2zm0 16H5V9h14v11z"/><path d="M0 0h24v24H0z" fill="none"/></symbol><symbol id="sprite-download" viewBox="0 -256 1792 1792"><title>download</title><path d="M1339 729q17-41-14-70L877 211q-18-19-45-19t-45 19L339 659q-31 29-14 70 17 39 59 39h256v448q0 26 19 45t45 19h256q26 0 45-19t19-45V768h256q42 0 59-39zm293-217q14 0 23-9t9-23V-96q0-14-9-23t-23-9H32q-14 0-23 9T0-96v576q0 14 9 23t23 9h192q14 0 23-9t9-23V128h1152v352q0 14 9 23t23 9h192z" transform="matrix(1 0 0 -1 68.339 1232.271)"/></symbol><symbol id="sprite-email" viewBox="0 0 24 24"><title>email</title><path d="M20 4H4c-1.1 0-1.99.9-1.99 2L2 18c0 1.1.9 2 2 2h16c1.1 0 2-.9 2-2V6c0-1.1-.9-2-2-2zm0 4l-8 5-8-5V6l8 5 8-5v2z"/><path d="M0 0h24v24H0z" fill="none"/></symbol><symbol id="sprite-files-and-folders" viewBox="0 0 472.615 472.615"><title>files-and-folders</title><path d="M354.462 0H39.385v472.615h393.846V77.785L354.462 0zm59.076 452.923H59.077V19.692H345.6l67.938 65.969v367.262z"/><path d="M355.446 77.785v-64h-19.692v83.692h87.631V77.785zM102.4 137.846h251.077v19.692H102.4zM101.415 182.154h235.323v19.692H101.415zM101.415 230.4h223.508v19.692H101.415zM101.415 274.708h189.046V294.4H101.415zM100.431 313.108h146.708V332.8H100.431z"/></symbol><symbol id="sprite-freebsd" viewBox="0 0 636.19 620.87"><title>freebsd</title><g stroke="#000" stroke-width="2" fill="#ff1000"><path d="M620.886 314.616c-.203 167.083-135.826 302.376-302.918 302.172-167.083-.204-302.375-135.827-302.172-302.914C16 146.787 151.623 11.494 318.71 11.698c167.002.204 302.246 135.684 302.176 302.681" stroke-linejoin="round" stroke-linecap="round" stroke-width="8.1504"/><path d="M418.43 89.555C522.482 39.29 750.412-122.258 556.355 207.458 477.11 227.08 422.53 146.248 418.43 87.33M51.377 158.507C-17.86 41.141-33.917-58.293 164.831 51.737" stroke-width="8.1504"/></g></symbol><symbol id="sprite-map-point" viewBox="0 0 166.418 166.418"><title>map-point</title><path d="M83.209 166.418c-7.121 0-13.11-4.387-15.258-11.176l-3.572-11.285c-5.089-16.083-13.75-31.047-25.742-44.478a59.588 59.588 0 01-15.156-40.078c.086-15.993 6.312-30.945 17.53-42.102C52.229 6.144 67.215 0 83.209 0c32.934 0 59.728 26.794 59.728 59.729 0 15.138-5.676 29.576-15.982 40.657-11.19 12.03-19.574 26.691-24.917 43.575l-3.57 11.281c-2.149 6.789-8.138 11.176-15.259 11.176zM83.209 5C52.685 5 28.645 28.908 28.481 59.429A54.597 54.597 0 0042.367 96.15c12.465 13.961 21.475 29.538 26.779 46.3l3.572 11.285c1.793 5.665 6.595 7.684 10.492 7.684 3.896 0 8.698-2.019 10.491-7.684l3.57-11.281c5.568-17.597 14.324-32.896 26.023-45.474 9.443-10.151 14.644-23.381 14.644-37.251C137.937 29.551 113.387 5 83.209 5zm0 86.996c-18.188 0-32.984-14.797-32.984-32.984 0-18.188 14.797-32.985 32.984-32.985 18.188 0 32.985 14.797 32.985 32.985 0 18.187-14.797 32.984-32.985 32.984zm0-60.97c-15.431 0-27.984 12.554-27.984 27.985s12.554 27.984 27.984 27.984c15.431 0 27.985-12.554 27.985-27.984 0-15.431-12.554-27.985-27.985-27.985z" fill="#000002"/></symbol><symbol id="sprite-pencil" viewBox="0 0 469.336 469.336"><title>pencil</title><path d="M456.836 76.168l-64-64.054c-16.125-16.139-44.177-16.17-60.365.031L45.763 301.682a10.733 10.733 0 00-2.688 4.587L.409 455.73a10.682 10.682 0 0010.261 13.606c.979 0 1.969-.136 2.927-.407l149.333-42.703a10.714 10.714 0 004.583-2.69l289.323-286.983c8.063-8.069 12.5-18.787 12.5-30.192s-4.437-22.124-12.5-30.193zM285.989 89.737l39.264 39.264-204.996 204.997-14.712-29.434a10.671 10.671 0 00-9.542-5.896H78.921L285.989 89.737zm-259.788 353.4L40.095 394.5l34.742 34.742-48.636 13.895zm123.135-35.177l-51.035 14.579-51.503-51.503 14.579-51.035h28.031l18.385 36.771a10.671 10.671 0 004.771 4.771l36.771 18.385v28.032zm21.334-17.543v-17.082c0-4.042-2.281-7.729-5.896-9.542l-29.434-14.712 204.996-204.996 39.264 39.264-208.93 207.068zM441.784 121.72l-47.033 46.613-93.747-93.747 46.582-47.001c8.063-8.063 22.104-8.063 30.167 0l64 64c4.031 4.031 6.25 9.385 6.25 15.083s-2.219 11.052-6.219 15.052z"/></symbol><symbol id="sprite-phone_enabled" viewBox="0 0 24 24"><title>phone_enabled</title><path d="M0 0h24v24H0z" fill="none"/><path d="M17.38 10.79l-2.2-2.2c-.28-.28-.36-.67-.25-1.02.37-1.12.57-2.32.57-3.57 0-.55.45-1 1-1H20c.55 0 1 .45 1 1 0 9.39-7.61 17-17 17-.55 0-1-.45-1-1v-3.49c0-.55.45-1 1-1 1.24 0 2.45-.2 3.57-.57.35-.12.75-.03 1.02.24l2.2 2.2c2.83-1.45 5.15-3.76 6.59-6.59z"/></symbol><symbol id="sprite-place" viewBox="0 0 24 24"><title>place</title><path d="M12 2C8.13 2 5 5.13 5 9c0 5.25 7 13 7 13s7-7.75 7-13c0-3.87-3.13-7-7-7zm0 9.5a2.5 2.5 0 010-5 2.5 2.5 0 010 5z"/><path d="M0 0h24v24H0z" fill="none"/></symbol><symbol id="sprite-remove_red_eye-24px" viewBox="0 0 24 24"><title>remove_red_eye-24px</title><path d="M0 0h24v24H0z" fill="none"/><path d="M12 4.5C7 4.5 2.73 7.61 1 12c1.73 4.39 6 7.5 11 7.5s9.27-3.11 11-7.5c-1.73-4.39-6-7.5-11-7.5zM12 17c-2.76 0-5-2.24-5-5s2.24-5 5-5 5 2.24 5 5-2.24 5-5 5zm0-8c-1.66 0-3 1.34-3 3s1.34 3 3 3 3-1.34 3-3-1.34-3-3-3z"/></symbol><symbol id="sprite-search" viewBox="0 0 30 30"><title>search</title><path d="M13 3C7.489 3 3 7.489 3 13s4.489 10 10 10a9.947 9.947 0 006.322-2.264l5.971 5.971a1 1 0 101.414-1.414l-5.97-5.97A9.947 9.947 0 0023 13c0-5.511-4.489-10-10-10zm0 2c4.43 0 8 3.57 8 8s-3.57 8-8 8-8-3.57-8-8 3.57-8 8-8z"/></symbol></svg>